<svg width="32" height="29" viewBox="0 0 32 29" fill="none" xmlns="http://www.w3.org/2000/svg">
<path d="M20.0212 1.08702L20.0791 9.08681L16.0792 9.11578L16.072 8.11581C16.07 7.8506 15.9628 7.59701 15.7739 7.41084C15.5851 7.22467 15.3299 7.12116 15.0647 7.12308C14.7995 7.125 14.5459 7.23219 14.3598 7.42108C14.1736 7.60997 14.0701 7.86508 14.072 8.13029L14.0792 9.13027L12.0793 9.14475L12.0214 1.14496L20.0212 1.08702Z" fill="#57A4FF"/>
<path d="M22.1645 12.51C21.9558 12.3051 21.6919 12.1655 21.405 12.1084C21.1182 12.0513 20.8209 12.0792 20.5496 12.1885C20.4879 11.9689 20.3769 11.7663 20.2251 11.5961C20.0733 11.4258 19.8847 11.2924 19.6736 11.2059C19.4625 11.1195 19.2345 11.0823 19.0068 11.0972C18.7792 11.1121 18.558 11.1787 18.36 11.2919C18.3003 11.2005 18.2312 11.1158 18.1538 11.039C17.9518 10.8407 17.6979 10.7034 17.4214 10.6431C17.1448 10.5827 16.8569 10.6017 16.5906 10.6978L16.5828 9.61219L20.0827 9.58685C20.2153 9.58589 20.3421 9.53229 20.4351 9.43785C20.5282 9.3434 20.58 9.21585 20.579 9.08324L20.5211 1.08345C20.5201 0.950846 20.4665 0.824054 20.3721 0.730967C20.2776 0.63788 20.1501 0.586124 20.0175 0.587085L12.0177 0.645019C11.8851 0.645979 11.7583 0.699578 11.6652 0.794022C11.5721 0.888467 11.5204 1.01602 11.5213 1.14863L11.5793 9.14842C11.5802 9.28102 11.6338 9.40781 11.7283 9.5009C11.8227 9.59399 11.9503 9.64574 12.0829 9.64478L13.5828 9.63392L13.6139 13.9263C13.6095 13.9182 13.6057 13.9101 13.6006 13.9027C13.4003 13.5589 13.0716 13.3088 12.6869 13.2074C12.3022 13.106 11.8929 13.1615 11.5492 13.3619C11.2054 13.5622 10.9553 13.8909 10.8539 14.2756C10.7525 14.6603 10.808 15.0696 11.0084 15.4133L13.729 20.405C13.7537 20.4507 13.7854 20.4922 13.823 20.5281L14.6751 21.3382L14.7132 27.6256C14.7141 27.7583 14.7676 27.8852 14.8621 27.9784C14.9565 28.0716 15.0841 28.1234 15.2168 28.1226L21.2166 28.0791C21.3492 28.0782 21.476 28.0246 21.5691 27.9301C21.6622 27.8357 21.7139 27.7081 21.713 27.5755L21.6674 21.2826L22.515 20.4233C22.608 20.3287 22.6596 20.2011 22.6586 20.0685L22.6116 13.5686C22.6105 13.3714 22.5705 13.1763 22.4938 12.9946C22.4171 12.813 22.3052 12.6482 22.1645 12.51ZM12.5756 8.64119L12.5249 1.64137L19.5247 1.59068L19.5754 8.5905L16.5755 8.61222L16.5719 8.11223C16.569 7.71442 16.4082 7.33404 16.1249 7.05478C15.8415 6.77552 15.4589 6.62026 15.0611 6.62314C14.6633 6.62602 14.2829 6.78681 14.0036 7.07015C13.7244 7.35348 13.5691 7.73615 13.572 8.13396L13.5756 8.63395L12.5756 8.64119ZM21.6572 19.8688L20.8096 20.7281C20.7166 20.8227 20.6649 20.9503 20.6659 21.0829L20.7094 27.0828L15.7101 27.119L15.6736 21.1197C15.6731 21.0525 15.6592 20.9861 15.6325 20.9245C15.6059 20.8628 15.5671 20.8072 15.5185 20.7608L14.5694 19.8577L11.883 14.9282L11.8754 14.9152C11.8085 14.8005 11.7897 14.6639 11.8232 14.5354C11.8567 14.4069 11.9398 14.2969 12.0542 14.2295C12.1294 14.1849 12.2151 14.1612 12.3025 14.1608C12.3883 14.1603 12.4728 14.1818 12.548 14.2233C12.6231 14.2648 12.6864 14.3248 12.7317 14.3977L13.684 16.264C13.7352 16.3642 13.8187 16.4442 13.921 16.491C14.0233 16.5379 14.1384 16.5489 14.2477 16.5222C14.357 16.4956 14.4542 16.4328 14.5234 16.3441C14.5926 16.2554 14.6299 16.1459 14.6292 16.0334L14.5719 8.12672C14.571 7.99411 14.6227 7.86656 14.7158 7.77211C14.8089 7.67767 14.9357 7.62407 15.0683 7.62311C15.2009 7.62215 15.3285 7.67391 15.4229 7.76699C15.5174 7.86008 15.571 7.98687 15.5719 8.11948L15.619 14.6193C15.62 14.7519 15.6735 14.8787 15.768 14.9718C15.8624 15.0649 15.99 15.1166 16.1226 15.1157C16.2552 15.1147 16.382 15.0611 16.4751 14.9667C16.5682 14.8722 16.6199 14.7447 16.619 14.6121L16.6009 12.1121C16.6001 11.9796 16.6519 11.8521 16.7449 11.7577C16.838 11.6633 16.9647 11.6097 17.0972 11.6085C17.1629 11.608 17.2281 11.6204 17.2889 11.645C17.3498 11.6697 17.4052 11.7061 17.452 11.7522C17.4988 11.7983 17.536 11.8532 17.5616 11.9137C17.5871 11.9742 17.6004 12.0392 17.6008 12.1049L17.6189 14.6048C17.6199 14.7374 17.6735 14.8642 17.7679 14.9573C17.8624 15.0504 17.9899 15.1021 18.1225 15.1012C18.2552 15.1002 18.3819 15.0466 18.475 14.9522C18.5681 14.8577 18.6199 14.7302 18.6189 14.5976L18.6044 12.5976C18.6037 12.4651 18.6555 12.3376 18.7485 12.2432C18.8416 12.1488 18.9682 12.0952 19.1008 12.094C19.1665 12.0935 19.2316 12.1059 19.2925 12.1305C19.3534 12.1552 19.4088 12.1916 19.4556 12.2377C19.5024 12.2838 19.5396 12.3387 19.5651 12.3992C19.5907 12.4597 19.604 12.5247 19.6044 12.5904L19.6189 14.5903C19.6198 14.7229 19.6734 14.8497 19.7679 14.9428C19.8623 15.0359 19.9899 15.0877 20.1225 15.0867C20.2551 15.0857 20.3819 15.0321 20.475 14.9377C20.5681 14.8433 20.6198 14.7157 20.6189 14.5831L20.6116 13.5831C20.6108 13.4506 20.6627 13.3231 20.7557 13.2287C20.8487 13.1343 20.9754 13.0807 21.108 13.0795C21.1737 13.0789 21.2388 13.0913 21.2997 13.116C21.3606 13.1407 21.416 13.1771 21.4628 13.2232C21.5096 13.2693 21.5468 13.3242 21.5723 13.3847C21.5979 13.4452 21.6112 13.5102 21.6116 13.5759L21.6572 19.8688Z" fill="#57A4FF"/>
<path d="M9.01784 0.666716L1.01805 0.724651C0.885449 0.725611 0.758656 0.779209 0.66557 0.873654C0.572483 0.968099 0.520727 1.09565 0.521687 1.22826L0.579622 9.22805C0.580582 9.36065 0.63418 9.48745 0.728625 9.58053C0.82307 9.67362 0.950625 9.72537 1.08323 9.72441L9.08302 9.66648C9.21562 9.66552 9.34242 9.61192 9.4355 9.51748C9.52859 9.42303 9.58035 9.29548 9.57939 9.16287L9.52145 1.16308C9.52049 1.03048 9.46689 0.903685 9.37245 0.810599C9.278 0.717512 9.15045 0.665756 9.01784 0.666716ZM8.57579 8.67013L1.57597 8.72082L1.52528 1.721L8.5251 1.67031L8.57579 8.67013Z" fill="#57A4FF"/>
<path d="M31.0173 0.507414L23.0175 0.565349C22.8849 0.566309 22.7581 0.619907 22.665 0.714352C22.5719 0.808797 22.5202 0.936352 22.5211 1.06896L22.5791 9.06875C22.58 9.20135 22.6336 9.32814 22.7281 9.42123C22.8225 9.51432 22.9501 9.56607 23.0827 9.56511L31.0825 9.50718C31.2151 9.50622 31.3419 9.45262 31.435 9.35818C31.528 9.26373 31.5798 9.13618 31.5788 9.00357L31.5209 1.00378C31.5199 0.871176 31.4663 0.744384 31.3719 0.651297C31.2775 0.55821 31.1499 0.506454 31.0173 0.507414ZM30.5752 8.51083L23.5754 8.56152L23.5247 1.5617L30.5245 1.51101L30.5752 8.51083Z" fill="#57A4FF"/>
</svg>