<svg width="33" height="33" viewBox="0 0 33 33" fill="none" xmlns="http://www.w3.org/2000/svg">
<path d="M3.07878 4.28946L0.642724 4.78243L0.758434 20.76C0.763584 21.4712 1.34431 22.0436 2.05548 22.0384L4.78534 22.0186L10.4865 24.0589L16.1576 21.9362L18.3529 21.9203C18.6705 21.918 18.9761 21.7984 19.2109 21.5845L20.2674 20.6218C20.7536 20.1788 21.4955 20.1734 21.9881 20.6093L23.0584 21.5566C23.2963 21.7671 23.6035 21.8823 23.9212 21.88L30.8694 21.8297C31.5806 21.8245 32.153 21.2439 32.1478 20.5326L32.0321 4.55511L27.7113 4.11107L3.07878 4.28946Z" fill="#D3E1F5"/>
<path d="M30.7114 0.00933825L23.7632 0.0596575C23.4456 0.0619577 23.14 0.181549 22.9052 0.395505L21.8487 1.35818C21.3626 1.80121 20.6206 1.80659 20.128 1.37064L19.0577 0.423368C18.8198 0.212836 18.5125 0.0976829 18.1949 0.0999831L1.28772 0.222425C0.576547 0.227575 0.00417536 0.808298 0.00932564 1.51947L0.0329887 4.78694L32.0321 4.55521L32.0085 1.28773C32.0033 0.57656 31.4226 0.00418796 30.7114 0.00933825V0.00933825Z" fill="#57A4FF"/>
<path d="M1.91027 20.7518L1.79456 4.77426L1.55468 4.36817L0.442518 4.37622L0.0329826 4.78701L0.148692 20.7646C0.153842 21.4758 0.734565 22.0481 1.44573 22.043L3.20731 22.0302C2.49608 22.0353 1.91542 21.4629 1.91027 20.7518Z" fill="#57A4FF"/>
<path d="M3.04923 0.209668L1.28772 0.222425C0.576547 0.227575 0.00417536 0.808298 0.00932564 1.51947L0.0329887 4.78694L1.79457 4.77419L1.7709 1.50671C1.76575 0.795541 2.33806 0.214818 3.04923 0.209668V0.209668Z" fill="#57A4FF"/>
<path d="M16.4709 10.068L18.4771 10.0535C18.6549 10.0522 18.798 9.90706 18.7967 9.72926L18.7828 7.80249C18.7815 7.62469 18.6363 7.48161 18.4585 7.4829L16.4523 7.49742C16.2745 7.49871 16.1314 7.64388 16.1327 7.82169L16.1467 9.74845C16.1479 9.92626 16.2931 10.0693 16.4709 10.068Z" fill="#F58220"/>
<path d="M14.6901 18.4784C13.9257 18.4839 13.7483 18.9198 13.7538 19.6842L13.7438 21.9538L5.38548 22.0143L5.25118 31.4321C5.25376 31.7877 6.18355 32.1878 6.53917 32.1853L13.8857 32.132C14.2413 32.1295 14.5274 31.8391 14.5249 31.4835L14.5102 29.4553C14.506 28.8813 14.6495 28.3158 14.9269 27.8132L15.7606 26.3027C16.0381 25.8001 16.1815 25.2346 16.1774 24.6606L16.1412 19.667C16.1375 19.1498 15.8506 18.701 15.4288 18.4665C15.2271 18.3543 14.9374 18.4766 14.6901 18.4784Z" fill="#57A4FF"/>
<path d="M6.21423 31.5438L6.14518 22.0089L4.7854 22.0187L4.85445 31.5536C4.85703 31.9092 5.14736 32.1954 5.50297 32.1928L6.86275 32.183C6.5072 32.1855 6.2168 31.8994 6.21423 31.5438Z" fill="#57A4FF"/>
<path d="M14.7328 19.6772C14.7291 19.1601 15.0099 18.708 15.4283 18.4673C15.2265 18.3552 14.9944 18.2912 14.7471 18.293C13.9826 18.2985 13.3675 18.9227 13.3731 19.687L13.4103 24.8326L14.7701 24.8228L14.7328 19.6772Z" fill="#57A4FF"/>
<path d="M13.4104 24.8327L12.4379 24.8397C11.3634 24.8475 10.4986 25.7249 10.5064 26.7994L10.5182 28.4233L11.8449 28.4137L11.8331 26.7898C11.8253 25.7153 12.6901 24.8379 13.7645 24.8301L13.4104 24.8327Z" fill="#57A4FF"/>
<path d="M20.965 5.52799C21.2317 5.52606 21.4463 5.30831 21.4443 5.04163L21.4358 3.85947C21.4338 3.59279 21.2161 3.37818 20.9494 3.38011C20.6827 3.38204 20.4681 3.59979 20.47 3.86647L20.4786 5.04856C20.4805 5.31524 20.6982 5.52992 20.965 5.52799Z" fill="#57A4FF"/>
<path d="M21.4414 4.63183L21.4358 3.85947C21.4338 3.59279 21.2161 3.37818 20.9494 3.38011C20.6827 3.38204 20.4681 3.59979 20.47 3.86647L20.4756 4.63882L21.4414 4.63183Z" fill="#57A4FF"/>
<path d="M20.5025 8.31675C20.5045 8.58343 20.7222 8.79805 20.9889 8.79611C21.2556 8.79418 21.4702 8.57644 21.4683 8.30976L21.4597 7.12766C21.4578 6.86098 21.24 6.64637 20.9733 6.6483C20.7067 6.65023 20.492 6.86798 20.494 7.13466L20.5025 8.31675Z" fill="#57A4FF"/>
<path d="M20.5261 11.5849C20.528 11.8516 20.7458 12.0662 21.0125 12.0642C21.2791 12.0623 21.4938 11.8446 21.4918 11.5779L21.4833 10.3958C21.4813 10.1291 21.2636 9.91449 20.9969 9.91642C20.7302 9.91836 20.5156 10.1361 20.5175 10.4028L20.5261 11.5849Z" fill="#57A4FF"/>
<path d="M20.5498 14.8531C20.5517 15.1197 20.7695 15.3344 21.0361 15.3324C21.3028 15.3305 21.5174 15.1128 21.5155 14.8461L21.5069 13.664C21.505 13.3973 21.2873 13.1827 21.0206 13.1846C20.7539 13.1865 20.5393 13.4043 20.5412 13.671L20.5498 14.8531Z" fill="#57A4FF"/>
<path d="M20.5735 18.1212C20.5754 18.3879 20.7931 18.6025 21.0598 18.6006C21.3265 18.5986 21.5411 18.3809 21.5392 18.1142L21.5306 16.9321C21.5287 16.6654 21.3109 16.4508 21.0443 16.4527C20.7776 16.4547 20.563 16.6724 20.5649 16.9391L20.5735 18.1212Z" fill="#57A4FF"/>
<path d="M23.2189 7.93128L29.7088 7.88428C29.9756 7.88235 30.1901 7.6646 30.1882 7.39792C30.1862 7.13124 29.9685 6.91663 29.7018 6.91856L23.2119 6.96556C22.9451 6.96749 22.7306 7.18524 22.7325 7.45192C22.7344 7.7186 22.9521 7.93322 23.2189 7.93128Z" fill="#57A4FF"/>
<path d="M23.2375 10.5019L29.7275 10.4549C29.9942 10.453 30.2088 10.2352 30.2069 9.96854C30.2049 9.70186 29.9872 9.48724 29.7205 9.48918L23.2305 9.53618C22.9638 9.53811 22.7492 9.75585 22.7512 10.0225C22.753 10.2892 22.9708 10.5038 23.2375 10.5019Z" fill="#57A4FF"/>
<path d="M23.2561 13.0725L29.746 13.0255C30.0128 13.0236 30.2273 12.8058 30.2254 12.5392C30.2235 12.2725 30.0057 12.0579 29.7391 12.0598L23.2491 12.1068C22.9824 12.1087 22.7678 12.3265 22.7697 12.5932C22.7717 12.8598 22.9893 13.0745 23.2561 13.0725Z" fill="#57A4FF"/>
<path d="M23.2748 15.6431L29.7647 15.5961C30.0315 15.5941 30.246 15.3764 30.2441 15.1097C30.2422 14.843 30.0244 14.6284 29.7577 14.6304L23.2678 14.6774C23.001 14.6793 22.7865 14.897 22.7884 15.1637C22.7903 15.4304 23.008 15.645 23.2748 15.6431Z" fill="#57A4FF"/>
<path d="M23.2933 18.2138L29.7833 18.1668C30.05 18.1648 30.2646 17.9471 30.2626 17.6804C30.2607 17.4137 30.043 17.1991 29.7763 17.201L23.2863 17.248C23.0196 17.25 22.805 17.4677 22.807 17.7344C22.8089 18.0011 23.0266 18.2157 23.2933 18.2138Z" fill="#57A4FF"/>
<path d="M19.0126 12.1374L16.1643 12.1581C15.8976 12.16 15.683 12.3777 15.6849 12.6444C15.6868 12.9111 15.9046 13.1257 16.1713 13.1238L19.0196 13.1032C19.2864 13.1012 19.5009 12.8835 19.499 12.6168C19.4971 12.3501 19.2793 12.1355 19.0126 12.1374Z" fill="#57A4FF"/>
<path d="M19.0312 14.7081L16.1828 14.7287C15.9161 14.7306 15.7015 14.9484 15.7034 15.215C15.7054 15.4817 15.9231 15.6963 16.1898 15.6944L19.0382 15.6738C19.3049 15.6718 19.5195 15.4541 19.5175 15.1874C19.5156 14.9207 19.2979 14.7061 19.0312 14.7081Z" fill="#57A4FF"/>
<path d="M14.2176 13.4358L14.2159 13.1967C14.2153 13.1218 14.1716 13.054 14.1036 13.0227L9.84282 11.0578C9.7522 11.0161 9.69386 10.9257 9.69314 10.8259L9.67939 8.92684C9.67482 8.29711 9.18132 7.76304 8.55181 7.74654L8.47243 7.74711C7.84323 7.77267 7.35751 8.31389 7.36207 8.94362L7.37582 10.8426C7.37655 10.9424 7.31952 11.0337 7.22952 11.0768L2.99764 13.1031C2.93012 13.1354 2.88737 13.2038 2.88791 13.2787L2.88964 13.5179C2.89041 13.6246 2.97748 13.7104 3.08416 13.7096L7.1388 13.6802C7.28099 13.6792 7.39713 13.7937 7.39816 13.9359L7.41243 15.9064C7.41314 16.0045 7.35811 16.0945 7.27042 16.1385L6.38574 16.5825C6.04416 16.7539 5.82963 17.1044 5.8324 17.4866L5.84114 18.694C5.84181 18.7866 5.93714 18.8482 6.02187 18.8108L7.94702 17.9614C8.35348 17.7821 8.8159 17.7788 9.22492 17.9522L11.1622 18.7736C11.2474 18.8097 11.3419 18.7467 11.3412 18.6541L11.3324 17.4468C11.3297 17.0646 11.1101 16.7172 10.7661 16.5507L9.87504 16.1196C9.78679 16.0769 9.7304 15.9878 9.72968 15.8897L9.71541 13.9191C9.71438 13.7769 9.82886 13.6608 9.97104 13.6597L14.0257 13.6304C14.1325 13.6296 14.2184 13.5425 14.2176 13.4358Z" fill="#57A4FF"/>
</svg>