<svg width="33" height="29" viewBox="0 0 33 29" fill="none" xmlns="http://www.w3.org/2000/svg">
<path d="M28.0122 6.71308L25.9688 0.727721C25.7932 0.22298 25.2611 -0.0591743 24.7402 0.0906021L3.78418 6.24252C3.30519 6.38399 3.00259 6.8542 3.07616 7.34768C3.14974 7.84116 3.57239 8.20611 4.07238 8.20249L27.0718 8.03593C27.3938 8.03359 27.6946 7.87741 27.8787 7.61407C28.0669 7.3527 28.1144 7.01635 28.0122 6.71308Z" fill="#57A4FF"/>
<path d="M30.0572 6.01431L2.05793 6.21708C0.95596 6.22506 0.0644865 7.12954 0.072467 8.23151L0.20282 26.231C0.210815 27.335 1.11528 28.2245 2.21725 28.2165L30.2165 28.0137C31.3205 28.0057 32.21 27.1033 32.202 25.9993L32.0716 7.99978C32.0636 6.89781 31.1612 6.00632 30.0572 6.01431Z" fill="#57A4FF"/>
<path d="M32.0861 9.99977L0.0869141 10.2315L0.130365 16.2313L32.1295 15.9996L32.0861 9.99977Z" fill="#455A64"/>
<path d="M28.1587 20.0284L4.1593 20.2022L4.18827 24.2021L28.1876 24.0283L28.1587 20.0284Z" fill="#FAFAFA"/>
</svg>