<svg width="33" height="23" viewBox="0 0 33 23" fill="none" xmlns="http://www.w3.org/2000/svg">
<path d="M10.0171 5.67932L17.5026 2.42249L11.2837 0.292228C11.0352 0.207105 10.7637 0.217895 10.5228 0.322959L8.36802 1.26007C8.07433 1.38797 7.85498 1.64216 7.77181 1.95101C7.68811 2.25979 7.7497 2.58952 7.93924 2.84766L10.0171 5.67932Z" fill="#57A4FF"/>
<path d="M31.9616 1.46594C31.3641 0.0901796 27.769 0.327463 26.3926 0.925539L6.79413 9.45198C4.41092 7.65718 5.15401 8.21692 3.46012 6.94116C3.15708 6.71334 2.75524 6.66535 2.40727 6.81675L0.72837 7.54701C0.453524 7.667 0.242962 7.89808 0.149077 8.18231C0.0551958 8.46714 0.0873448 8.77824 0.237057 9.03766C1.65971 11.5045 0.95368 10.2799 3.60039 14.8703C4.09888 15.7347 5.16649 16.087 6.08143 15.6889C7.80936 14.9373 5.70523 15.8525 13.5216 12.4523C14.1824 15.1202 13.6533 12.9854 15.6969 21.2293C15.7714 21.5301 15.9745 21.7824 16.2523 21.9198C16.5301 22.0567 16.8541 22.0649 17.1382 21.9412L19.2765 21.011C19.5659 20.8847 19.7837 20.6352 19.8696 20.331C22.6404 10.497 22.2745 11.7956 23.2869 8.20394L28.5606 5.90925C29.9379 5.31012 32.5607 2.84176 31.9616 1.46594Z" fill="#57A4FF"/>
</svg>