<svg width="33" height="33" viewBox="0 0 33 33" fill="none" xmlns="http://www.w3.org/2000/svg">
<path d="M14.4323 12.2657C14.4587 15.9164 11.5104 18.9078 7.85973 18.9342C4.20907 18.9606 1.21771 16.0123 1.19127 12.3616C1.17758 10.4709 1.97022 8.6908 3.36246 7.42386L3.35225 6.01369C1.30146 7.46361 0.0693892 9.82073 0.0878483 12.3696C0.118693 16.6288 3.60852 20.0685 7.86772 20.0376C12.1269 20.0068 15.5666 16.517 15.5357 12.2578L14.4323 12.2657Z" fill="#57A4FF"/>
<path d="M9.00318 24.4435L6.79634 24.4595C6.49235 24.4617 6.24642 24.7107 6.24862 25.0152L6.28858 30.5323C6.29519 31.4448 7.04317 32.1821 7.9557 32.1755C8.86822 32.1688 9.60545 31.4209 9.59884 30.5083L9.55888 24.9912C9.55668 24.6867 9.30717 24.4413 9.00318 24.4435Z" fill="#57A4FF"/>
<path d="M2.29462 12.3536C2.31665 15.3958 4.80955 17.8528 7.85167 17.8308C10.8938 17.8087 13.3508 15.3158 13.3288 12.2737L6.15659 12.3257C4.63553 12.3367 3.38908 11.1082 3.37807 9.58709L3.37411 9.0409C2.67201 9.99111 2.28588 11.1459 2.29462 12.3536ZM7.83569 15.6239C9.29 15.6134 10.5878 14.6318 10.9915 13.2369L12.0514 13.5437C11.5125 15.4042 9.78239 16.7133 7.84368 16.7274L7.83569 15.6239Z" fill="#57A4FF"/>
<path d="M8.97851 21.0565C8.61637 21.1049 8.25025 21.1385 7.87564 21.1412C7.50103 21.1439 7.13447 21.1157 6.77167 21.0725L6.7882 23.356L8.99505 23.3401L8.97851 21.0565Z" fill="#57A4FF"/>
<path d="M30.3441 0.0122246L6.06889 0.188026C5.15636 0.194634 4.41914 0.942613 4.42574 1.85514L4.48168 9.57908C4.48829 10.4916 5.23627 11.2288 6.1488 11.2222L30.424 11.0464C31.3365 11.0398 32.0738 10.2918 32.0672 9.3793L32.0112 1.65537C32.0046 0.742839 31.2566 0.0056161 30.3441 0.0122246ZM12.1406 10.0753L10.6632 10.086L9.54828 5.23496C9.5198 5.11103 9.30905 5.11255 9.28291 5.23688L8.2384 10.1036L6.76093 10.1143L5.53066 1.36823L6.62309 1.21466L7.57123 7.95335L8.20424 5.00579C8.327 4.4333 8.8212 4.03026 9.40711 4.02602C9.99303 4.02178 10.493 4.41762 10.624 4.98827L11.2997 7.92635L12.1501 1.17463L13.2447 1.31237L12.1406 10.0753ZM20.968 10.0114L19.4905 10.0221L18.3756 5.17103C18.3472 5.0471 18.1364 5.04862 18.1103 5.17295L17.0658 10.0397L15.5883 10.0504L14.358 1.3043L15.4504 1.15073L16.3986 7.88942L17.0316 4.94186C17.1544 4.36937 17.6485 3.96634 18.2345 3.96209C18.8204 3.95785 19.3204 4.35369 19.4514 4.92434L20.127 7.86242L20.9775 1.11071L22.072 1.24844L20.968 10.0114ZM29.7954 9.94749L28.3179 9.95819L27.203 5.10711C27.1745 4.98317 26.9638 4.9847 26.9376 5.10903L25.8931 9.97575L24.4156 9.98645L23.1854 1.24037L24.2778 1.0868L25.2259 7.82549L25.859 4.87794C25.9817 4.30545 26.4759 3.90241 27.0618 3.89816C27.6477 3.89392 28.1477 4.28976 28.2788 4.86041L28.9544 7.79849L29.8048 1.04678L30.8994 1.18451L29.7954 9.94749Z" fill="#57A4FF"/>
<path d="M23.2096 20.346C22.6537 18.7086 21.8455 17.7296 21.093 17.7351C20.3404 17.7405 19.5465 18.7311 19.0144 20.3764C19.6886 20.4559 20.393 20.4988 21.1129 20.4936C21.8329 20.4884 22.5366 20.4353 23.2096 20.346Z" fill="#57A4FF"/>
<path d="M26.0189 19.6596C25.2602 18.9544 24.3525 18.4115 23.3454 18.0855C23.7268 18.6433 24.0569 19.3416 24.3188 20.1574C24.9347 20.0266 25.5056 19.8592 26.0189 19.6596Z" fill="#57A4FF"/>
<path d="M18.3937 24.3755L23.8871 24.3357C23.8462 23.2601 23.7138 22.2762 23.5139 21.4175C22.7462 21.5279 21.9411 21.5911 21.1207 21.597C20.3003 21.603 19.4944 21.5514 18.7251 21.4522C18.5371 22.3137 18.419 23.2994 18.3937 24.3755Z" fill="#57A4FF"/>
<path d="M16.2705 30.1548C17.0293 30.86 17.937 31.4029 18.9441 31.7289C18.5627 31.1711 18.2326 30.4728 17.9707 29.657C17.3548 29.7878 16.7839 29.9552 16.2705 30.1548Z" fill="#57A4FF"/>
<path d="M23.4441 31.6963C24.4463 31.3558 25.346 30.7998 26.0945 30.0837C25.5784 29.8916 25.0045 29.7324 24.3873 29.6106C24.1373 30.43 23.8174 31.1331 23.4441 31.6963Z" fill="#57A4FF"/>
<path d="M19.0801 29.4686C19.636 31.106 20.4442 32.085 21.1967 32.0795C21.9493 32.0741 22.7432 31.0835 23.2753 29.4382C22.6011 29.3587 21.8967 29.3158 21.1768 29.321C20.4568 29.3262 19.7531 29.3793 19.0801 29.4686Z" fill="#57A4FF"/>
<path d="M24.6575 28.5414C25.4708 28.7055 26.2184 28.9301 26.872 29.2073C27.6813 28.1322 28.1944 26.8269 28.2928 25.4072L24.9985 25.431C24.9752 26.5534 24.8564 27.6004 24.6575 28.5414Z" fill="#57A4FF"/>
<path d="M18.7754 28.3971C19.5431 28.2867 20.3482 28.2235 21.1686 28.2175C21.989 28.2116 22.7949 28.2631 23.5642 28.3624C23.7516 27.5009 23.8697 26.5152 23.895 25.4391L18.4017 25.4789C18.4426 26.5545 18.5749 27.5384 18.7754 28.3971Z" fill="#57A4FF"/>
<path d="M24.6045 21.2226C24.8171 22.1607 24.951 23.2058 24.9906 24.3278L28.2848 24.3039C28.1659 22.8857 27.6334 21.588 26.8091 20.5247C26.1591 20.8114 25.4154 21.0468 24.6045 21.2226Z" fill="#57A4FF"/>
<path d="M17.9018 20.2038C18.1524 19.3843 18.4723 18.6813 18.845 18.1181C17.8428 18.4586 16.9431 19.0146 16.1946 19.7307C16.7113 19.9228 17.2846 20.082 17.9018 20.2038Z" fill="#57A4FF"/>
<path d="M17.299 25.4867L14.0047 25.5106C14.1237 26.9288 14.6561 28.2265 15.4804 29.2898C16.1299 29.0031 16.8742 28.7677 17.685 28.5918C17.4725 27.6538 17.3385 26.6087 17.299 25.4867Z" fill="#57A4FF"/>
<path d="M13.9967 24.4073L17.291 24.3834C17.3143 23.261 17.4331 22.2141 17.6321 21.273C16.8187 21.109 16.0711 20.8843 15.4175 20.6071C14.6088 21.6823 14.0952 22.9875 13.9967 24.4073Z" fill="#57A4FF"/>
</svg>