<svg width="26" height="34" viewBox="0 0 26 34" fill="none" xmlns="http://www.w3.org/2000/svg">
<path d="M7.52702 19.7219C8.24526 19.715 8.93916 19.643 9.59545 19.515L9.54008 9.36855C8.88252 9.25326 8.18785 9.19456 7.46961 9.20147C3.36857 9.24088 0.0556012 11.3975 0.0699047 14.0184L0.0755213 15.0476C0.0898243 17.6685 3.42598 19.7613 7.52702 19.7219Z" fill="#57A4FF"/>
<path d="M7.55592 25.0199C8.27417 25.013 8.96806 24.941 9.62436 24.8132L9.60812 21.8391C8.9517 21.967 8.25813 22.0399 7.5397 22.0468C3.95994 22.0812 0.963261 20.491 0.249679 18.343C0.149186 18.6579 0.0969922 18.9834 0.0988102 19.3165L0.104427 20.3457C0.11873 22.9667 3.45489 25.0593 7.55592 25.0199Z" fill="#57A4FF"/>
<path d="M9.63819 27.3685L9.63693 27.1373C8.98051 27.2652 8.28694 27.3382 7.56851 27.3451C3.98875 27.3795 0.99207 25.7892 0.278487 23.6413C0.177994 23.9561 0.1258 24.2816 0.127618 24.6147L0.133235 25.6439C0.147539 28.2649 3.4837 30.3576 7.58473 30.3182C8.40486 30.3103 9.19322 30.2176 9.93001 30.0535C9.7443 29.5283 9.64695 28.9734 9.64381 28.3976L9.63819 27.3685Z" fill="#57A4FF"/>
<path d="M18.1323 1.06108C14.0313 1.1005 10.7183 3.25707 10.7326 5.87804L10.7382 6.90722C10.7525 9.52819 14.0887 11.6209 18.1897 11.5815C22.2907 11.542 25.6037 9.38546 25.5894 6.7645L25.5838 5.73532C25.5695 3.11435 22.2333 1.02167 18.1323 1.06108Z" fill="#57A4FF"/>
<path d="M18.2024 13.9064C14.6227 13.9408 11.626 12.3507 10.9124 10.2027C10.8119 10.5174 10.7597 10.8429 10.7615 11.1761L10.7671 12.2053C10.7815 14.8263 14.1176 16.919 18.2186 16.8795C22.3196 16.8401 25.6326 14.6836 25.6183 12.0626L25.6127 11.0334C25.6109 10.7002 25.5552 10.3757 25.4513 10.0629C24.7612 12.2244 21.7822 13.872 18.2024 13.9064Z" fill="#57A4FF"/>
<path d="M18.2313 19.2047C14.6516 19.2391 11.6549 17.6489 10.9413 15.5009C10.8408 15.8157 10.7886 16.1412 10.7905 16.4744L10.7961 17.5036C10.8104 20.1246 14.1465 22.2173 18.2476 22.1779C22.3485 22.1385 25.6616 19.9819 25.6473 17.3609L25.6417 16.3317C25.6398 15.9985 25.5841 15.674 25.4802 15.3612C24.7901 17.5227 21.8111 19.1703 18.2313 19.2047Z" fill="#57A4FF"/>
<path d="M18.2618 24.7889C14.682 24.8233 11.6854 23.2331 10.9718 21.0852C10.8713 21.4 10.8191 21.7254 10.8209 22.0585L10.8265 23.0878C10.8408 25.7088 14.177 27.8015 18.278 27.7621C22.379 27.7226 25.692 25.5661 25.6777 22.9451L25.6721 21.9158C25.6703 21.5827 25.6146 21.2581 25.5106 20.9454C24.8206 23.1068 21.8416 24.7545 18.2618 24.7889Z" fill="#57A4FF"/>
<path d="M18.2907 30.0872C14.711 30.1216 11.7143 28.5314 11.0007 26.3835C10.9002 26.6983 10.848 27.0239 10.8498 27.3569L10.8555 28.386C10.8698 31.007 14.2059 33.0997 18.307 33.0603C22.4079 33.0209 25.721 30.8643 25.7067 28.2433L25.701 27.214C25.6992 26.8809 25.6435 26.5564 25.5396 26.2437C24.8495 28.4051 21.8705 30.0528 18.2907 30.0872Z" fill="#57A4FF"/>
</svg>